# xmcd
#
# Track frame offsets:
#       183
#       20308
#       37933
#       53758
#       70258
#       85708
#       99958
#       118033
#       137833
#       152158
#       167308
#       185945
#       201020
#       213695
#
# Disc length: 2993 seconds
#
# Revision: 2
# Processed by: cddbd v1.4PL0 Copyright (c) Steve Scherf et al.
# Submitted via: CD-DA_X-Tractor v0.24
#
DISCID=b90baf0e
DTITLE=Albert Järvinen - Braindamage - Or Still Alive
DYEAR=1988
DGENRE=
TTITLE0=Let It Roll
TTITLE1=Braindamage - Or Still Alive
TTITLE2=Going To California
TTITLE3=Duke Brothers Live At Taxman's Paradise
TTITLE4=Jeannie, Jeannie, Jeannie
TTITLE5=It's Only Love
TTITLE6=Don't Lie To Me
TTITLE7=Mr. Clarke
TTITLE8=Zydeco Baby
TTITLE9=Milkshake
TTITLE10=Song For The Sons
TTITLE11=My Joy
TTITLE12=L.A. Shuffle
TTITLE13=Tribute To Pidgeon
EXTD=
EXTT0=
EXTT1=
EXTT2=
EXTT3=
EXTT4=
EXTT5=
EXTT6=
EXTT7=
EXTT8=
EXTT9=
EXTT10=
EXTT11=
EXTT12=
EXTT13=
PLAYORDER=
